<!DOCTYPE svg PUBLIC "-//W3C//DTD SVG 1.1//EN" "http://www.w3.org/Graphics/SVG/1.1/DTD/svg11.dtd">
<!-- Uploaded to: SVG Repo, www.svgrepo.com, Transformed by: SVG Repo Mixer Tools -->
<svg fill="#ffffff" height="800px" width="800px" version="1.1" id="Layer_1" xmlns="http://www.w3.org/2000/svg" xmlns:xlink="http://www.w3.org/1999/xlink" viewBox="0 0 512 512" xml:space="preserve" stroke="#ffffff">
<g id="SVGRepo_bgCarrier" stroke-width="0"/>
<g id="SVGRepo_tracerCarrier" stroke-linecap="round" stroke-linejoin="round"/>
<g id="SVGRepo_iconCarrier"> <g> <g> <path d="M499.677,426.489c4.428,0,8.017-3.589,8.017-8.017V84.977c0-2.1-0.862-4.183-2.347-5.668l-76.96-76.96 C426.9,0.863,424.817,0,422.716,0H106.324C92.473,0,81.205,11.268,81.205,25.119v9.086H12.261c-6.987,0-10.616,8.738-5.668,13.685 l62.74,62.741l-62.74,62.741c-4.947,4.947-1.32,13.685,5.668,13.685h68.944v299.825c0,13.851,11.268,25.119,25.119,25.119h376.251 c13.851,0,25.119-11.268,25.119-25.119v-34.205c0-4.427-3.588-8.017-8.017-8.017c-4.428,0-8.017,3.589-8.017,8.017v34.205 c0,5.01-4.076,9.086-9.086,9.086H106.324c-5.01,0-9.086-4.076-9.086-9.086V187.056h51.841c4.427,0,8.017-3.589,8.017-8.017 s-3.589-8.017-8.017-8.017H31.615l54.724-54.724c3.131-3.131,3.131-8.207,0-11.337L31.615,50.238h348.88v120.785H183.284 c-4.427,0-8.017,3.589-8.017,8.017s3.589,8.017,8.017,8.017h205.228c4.428,0,8.017-3.589,8.017-8.017V42.221 c0-4.427-3.588-8.017-8.017-8.017H97.238v-9.086c0-5.01,4.076-9.086,9.086-9.086H414.7v51.841 c0,13.851,11.268,25.119,25.119,25.119h51.841v325.478C491.66,422.9,495.248,426.489,499.677,426.489z M439.819,76.96 c-5.01,0-9.086-4.076-9.086-9.086V27.37l49.589,49.59H439.819z"/> </g> </g> <g> <g> <path d="M199.852,110.63V84.977c0-4.427-3.589-8.017-8.017-8.017h-34.205c-4.427,0-8.017,3.589-8.017,8.017v51.307 c0,4.427,3.589,8.017,8.017,8.017s8.017-3.589,8.017-8.017v-17.655c0.177,0.012,0.355,0.018,0.534,0.018h4.261l14.722,22.083 c2.615,3.922,8.22,4.721,11.833,1.687c3.087-2.591,3.741-7.23,1.507-10.581l-8.792-13.189h2.123 C196.263,118.647,199.852,115.058,199.852,110.63z M183.819,102.614h-9.041c-0.002,0-0.004,0-0.005,0h-8.59 c-0.181,0-0.359,0.005-0.536,0.018v-9.638h18.171V102.614z"/> </g> </g> <g> <g> <path d="M319.568,110.63V84.977c0-4.427-3.588-8.017-8.017-8.017h-34.205c-4.428,0-8.017,3.589-8.017,8.017v51.307 c0,4.427,3.588,8.017,8.017,8.017c4.428,0,8.017-3.589,8.017-8.017v-17.655c0.176,0.012,0.355,0.018,0.534,0.018h4.261 l14.722,22.083c2.615,3.922,8.22,4.721,11.833,1.687c3.086-2.591,3.741-7.23,1.507-10.581l-8.792-13.189h2.123 C315.979,118.647,319.568,115.058,319.568,110.63z M303.535,102.614h-9.041c-0.002,0-0.004,0-0.005,0h-8.59 c-0.181,0-0.359,0.005-0.536,0.018v-9.638h18.171V102.614z"/> </g> </g> <g> <g> <path d="M259.298,133.749l-17.102-51.307c-1.091-3.274-4.155-5.481-7.605-5.481s-6.514,2.208-7.605,5.481l-17.102,51.307 c-1.4,4.201,0.87,8.74,5.071,10.141c4.2,1.399,8.739-0.87,10.14-5.07l9.497-28.49l9.497,28.49 c1.439,4.315,6.333,6.582,10.563,4.915C258.557,142.195,260.624,137.725,259.298,133.749z"/> </g> </g> <g> <g> <path d="M397.065,444.661h-9.086v-69.478h9.086c4.428,0,8.017-3.589,8.017-8.017s-3.588-8.017-8.017-8.017h-9.086V289.67h9.083 c4.428,0,8.017-3.589,8.017-8.017s-3.588-8.017-8.017-8.017h-60.038c2.9-0.812,5.33-1.72,7.009-2.731 c11.868-7.142,15.711-22.607,8.568-34.475c-7.144-11.867-22.61-15.708-34.476-8.566c-6.397,3.851-16.552,17.993-23.676,28.728 c-7.124-10.735-17.28-24.876-23.676-28.728c-11.869-7.143-27.334-3.299-34.476,8.567c-7.143,11.867-3.3,27.332,8.567,34.475 c1.679,1.011,4.11,1.919,7.01,2.731h-25.833c-23.281,0-42.221,18.941-42.221,42.221v17.102c0,14.059,6.914,26.527,17.513,34.205 c-10.599,7.678-17.513,20.145-17.513,34.205v17.102c0,23.281,18.941,42.221,42.221,42.221h171.023 c4.428,0,8.017-3.589,8.017-8.017S401.493,444.661,397.065,444.661z M249,251.576c-0.585-2.356-0.218-4.797,1.034-6.877 c2.549-4.235,8.226-5.653,12.469-3.099c2.677,1.629,9.359,10.335,16.208,20.361c-12.062-1.359-22.883-3.188-25.579-4.793 C251.053,255.918,249.585,253.931,249,251.576z M286.432,384.802h-51.841c-4.427,0-8.017,3.589-8.017,8.017 c0,4.427,3.589,8.017,8.017,8.017h51.841v18.171h-51.841c-4.427,0-8.017,3.589-8.017,8.017c0,4.427,3.589,8.017,8.017,8.017 h51.841v9.62H226.04c-14.44,0-26.188-11.748-26.188-26.188V401.37c0-14.44,11.748-26.188,26.188-26.188h60.393V384.802z M286.432,299.29h-51.841c-4.427,0-8.017,3.589-8.017,8.017s3.589,8.017,8.017,8.017h51.841v18.171h-51.841 c-4.427,0-8.017,3.589-8.017,8.017s3.589,8.017,8.017,8.017h51.841v9.62H226.04c-14.44,0-26.188-11.748-26.188-26.188v-17.102 c0-14.44,11.748-26.188,26.188-26.188h60.393V299.29z M326.394,241.601c4.244-2.553,9.92-1.137,12.471,3.099 c2.584,4.293,1.193,9.886-3.098,12.47c-2.694,1.602-13.514,3.432-25.58,4.792C317.035,251.936,323.716,243.232,326.394,241.601z M371.944,444.66h-69.478v-9.62h69.478V444.66z M371.944,419.006h-69.478v-18.171h69.478V419.006z M371.944,384.802h-69.478v-9.62 h69.478V384.802z M371.944,359.148h-69.478v-9.62h69.478V359.148z M371.944,333.495h-69.478v-18.171h69.478V333.495z M371.944,299.29h-69.478v-9.62h69.478V299.29z"/> </g> </g> </g>
</svg>